<svg xmlns="http://www.w3.org/2000/svg" xmlns:xlink="http://www.w3.org/1999/xlink" viewBox="0 0 612 612"><defs><style>.cls-1{fill:#2b1f0f;stroke:#2b1f0f;stroke-miterlimit:10;}.cls-2{fill:#314427;}.cls-3{fill:#846172;}.cls-4{fill:#684b5b;}.cls-5{fill:#937082;}.cls-6{fill:url(#linear-gradient);}.cls-7{fill:#9b6933;}</style><linearGradient id="linear-gradient" x1="260.95" y1="494.87" x2="260.95" y2="202.37" gradientUnits="userSpaceOnUse"><stop offset="0" stop-color="#2b1f0f"/><stop offset="0.45" stop-color="#273d1e"/></linearGradient></defs><g id="Layer_1" data-name="Layer 1"><path class="cls-1" d="M138.4,253.86a179.17,179.17,0,0,0-5.76,60.28c3.85,51.28,17.84,92,41.58,121.1,29.52,36.15,74.82,54.47,134.63,54.47H309c1.33,0,35-.19,68.68-15.95,44.47-20.84,68.23-58.26,70.63-111.23a1,1,0,0,0-.27-.71.86.86,0,0,0-.65-.28H319.81v-20H447.35a20.94,20.94,0,0,1,20.9,21.89c-3.45,76.32-46.93,112.14-82.79,128.75-36.83,17.05-72.49,17.53-76.33,17.53h-.37c-66,0-116.53-20.8-150-61.82-26.38-32.32-41.87-76.81-46-132.25-1.67-22.25,2.06-48.21,7.53-69.14"/></g><g id="Layer_2" data-name="Layer 2"><path class="cls-2" d="M282.9,173.74c-13.32,13.92-6.86,28-6.86,28l-14.73,2.52c-3.94-20.27-16.49-21-16.49-21s-5.19-8.26,1.57-18.12S276,158.83,276,158.83Z"/><path class="cls-3" d="M248.45,164.88c1.64,11-9.8,37.59-20.64,36.89s-13.24-21.27-13.24-21.27,8.45-26.18,14.29-32.44,8.49-7.18,8.49-7.18Z"/><path class="cls-4" d="M313,166.23c2.08,18-3.35,21.46-4.9,22.87s-14.92,6.19-20.69-6.34A169.42,169.42,0,0,0,276,161.91l3.5-31.8Z"/><path class="cls-5" d="M367.47,165.52A62.24,62.24,0,0,1,371.4,176c1.27,5.07-9.71,18.45-17.6,4.09s-19-19.15-19-19.15l-4.15-18.23s20.76,4.43,24.56,7.95S367.47,165.52,367.47,165.52Z"/><path class="cls-5" d="M190.73,183.28s-7.17,19.31-9.57,23.46c-3.85,6.66-15.77,12.95-21.4,4.32S163.21,183,163.21,183s12.69-22,19.92-24,9.57,1.78,9.57,1.78Z"/><path class="cls-5" d="M255.87,118.33s-18,2.63-20.65,8.26,10.54,49.06,27,46.18c15-2.63,14.27-10.52,17.64-33.79S272,117.2,255.87,118.33Z"/><path class="cls-4" d="M236.71,124.75s-25.14-3.6-38.66,11-8.63,45.42-7.32,47.49,10.7,10.13,21.21,0,25.09-36.76,25.41-41.75"/><path class="cls-3" d="M198.05,135.79s-35.85-4.7-50.3,21.4-3.57,39.6,0,39.79,28.78-30.41,41-35.85"/><path class="cls-3" d="M276.56,120.41s10.51-7,33-4.1,27,41.53,25.2,44.63-7.6,11.83-16.75,7.88-30.69-18.55-37.73-33.49"/><path class="cls-4" d="M315.65,117.8s34.21-7.54,53.64,8.93,21.36,36.14,17.74,39.7-10.7,7.46-22.67-3.52-27.19-19-31.26-18.58"/><path class="cls-6" d="M263.86,203.86S286.09,274.13,241,489.24l22.82,5.63s31.53-235.86,8.72-292.5"/><path class="cls-7" d="M218.86,125.31S217.67,119,214.2,118c0,0-4,1.6-6.29,0s-4.79-7.27-1.78-10.13,7.6-3.34,11,1.59c0,0,10.7,6.61,10.55,14.9"/><path class="cls-7" d="M237.35,124.25s-1.52-8.88-5.37-11.18a8.36,8.36,0,0,1-6.38-2.19,6.42,6.42,0,0,1,.52-9.68c2.95-2.06,8.63-2.63,10.55,4.53,0,0,7.12,6.12,8.89,14.9"/><path class="cls-7" d="M251.74,119.08l-1.5-12.39a6.35,6.35,0,0,1-3.38-6c.37-4.13,2.63-6.2,4.88-6.57s7.32.18,7.88,4.88-1.05,6.32-1.93,6.73c0,0,2,9.1,2.05,12.07"/><path class="cls-7" d="M266.94,117.8A23,23,0,0,1,270.81,102l.57-.63s-1.13-4.86,2-6.48a7.74,7.74,0,0,1,7.14,0c1.3.64,4.61,3.1,2.64,8s-5.49,3.68-5.49,3.68-2.94,4-2.46,12.94"/><path class="cls-7" d="M285,117.17s-.86-12.12,5.75-16.41c0,0,.43-6.27,4.58-6.73s7.88,1.52,8.23,5.18-.21,7.32-6.75,8c0,0-3,.24-3.45,8.36"/></g></svg>